<svg width="15" height="15" viewBox="0 0 15 15" fill="none" xmlns="http://www.w3.org/2000/svg">
<path fill-rule="evenodd" clip-rule="evenodd" d="M2 4.5C2 4.22386 2.22386 4 2.5 4H12.5C12.7761 4 13 4.22386 13 4.5V10.5C13 11.3284 12.3284 12 11.5 12H3.5C2.67157 12 2 11.3284 2 10.5V4.5ZM3 5.46033V10.5C3 10.7761 3.22386 11 3.5 11H11.5C11.7761 11 12 10.7761 12 10.5V5.46033L7.78673 8.40962C7.61457 8.53013 7.38543 8.53013 7.21327 8.40962L3 5.46033ZM10.9138 5H4.08618L7.5 7.38967L10.9138 5Z" fill="#EBEBEB"/>
</svg>
