<svg width="17" height="22" viewBox="0 0 17 22" fill="none" xmlns="http://www.w3.org/2000/svg">
<g filter="url(#filter0_d_2_3517)">
<path fill-rule="evenodd" clip-rule="evenodd" d="M11 5.5C11 6.88071 9.88071 8 8.5 8C7.11929 8 6 6.88071 6 5.5C6 4.11929 7.11929 3 8.5 3C9.88071 3 11 4.11929 11 5.5ZM10 5.5C10 6.32843 9.32843 7 8.5 7C7.67157 7 7 6.32843 7 5.5C7 4.67157 7.67157 4 8.5 4C9.32843 4 10 4.67157 10 5.5Z" fill="#EBEBEB"/>
<path fill-rule="evenodd" clip-rule="evenodd" d="M8.8614 13.5826C9.92992 12.3203 13 8.47793 13 6C13 3.5 11.5 1 8.5 1C5.5 1 4 3.5 4 6C4 8.47793 7.07007 12.3203 8.1386 13.5826C8.33043 13.8092 8.66957 13.8093 8.8614 13.5826ZM12 6C12 6.43104 11.8617 6.99544 11.581 7.66695C11.3051 8.3269 10.9184 9.02776 10.4857 9.71357C9.80849 10.7868 9.04825 11.777 8.5 12.4517C7.95175 11.777 7.19151 10.7868 6.51433 9.71357C6.08162 9.02776 5.69491 8.3269 5.41902 7.66695C5.13829 6.99545 5 6.43105 5 6C5 4.93644 5.32117 3.91806 5.90587 3.1872C6.47023 2.48175 7.31033 2 8.5 2C9.68967 2 10.5298 2.48175 11.0941 3.1872C11.6788 3.91806 12 4.93644 12 6Z" fill="#EBEBEB"/>
</g>
<defs>
<filter id="filter0_d_2_3517" x="-3" y="0" width="23" height="23" filterUnits="userSpaceOnUse" color-interpolation-filters="sRGB">
<feFlood flood-opacity="0" result="BackgroundImageFix"/>
<feColorMatrix in="SourceAlpha" type="matrix" values="0 0 0 0 0 0 0 0 0 0 0 0 0 0 0 0 0 0 127 0" result="hardAlpha"/>
<feOffset dy="4"/>
<feGaussianBlur stdDeviation="2"/>
<feComposite in2="hardAlpha" operator="out"/>
<feColorMatrix type="matrix" values="0 0 0 0 0 0 0 0 0 0 0 0 0 0 0 0 0 0 0.25 0"/>
<feBlend mode="normal" in2="BackgroundImageFix" result="effect1_dropShadow_2_3517"/>
<feBlend mode="normal" in="SourceGraphic" in2="effect1_dropShadow_2_3517" result="shape"/>
</filter>
</defs>
</svg>
