<svg width="15" height="15" viewBox="0 0 15 15" fill="none" xmlns="http://www.w3.org/2000/svg">
<path fill-rule="evenodd" clip-rule="evenodd" d="M9.43934 2.85355C10.0251 2.26777 10.9749 2.26777 11.5607 2.85356L12.4393 3.73223C13.4157 4.70854 13.4157 6.29146 12.4393 7.26777L7.26777 12.4393C6.29146 13.4157 4.70854 13.4157 3.73223 12.4393L2.85356 11.5607C2.26777 10.9749 2.26777 10.0251 2.85355 9.43934L3.93934 8.35355C4.52513 7.76777 5.47488 7.76777 6.06066 8.35356L6.5 8.79289L8.7929 6.5L8.35356 6.06066C7.76777 5.47488 7.76777 4.52513 8.35355 3.93934L9.43934 2.85355ZM10.8536 3.56066C10.6583 3.3654 10.3417 3.3654 10.1464 3.56066L9.06066 4.64645C8.8654 4.84171 8.8654 5.15829 9.06066 5.35355L9.85356 6.14645C10.0488 6.34171 10.0488 6.65829 9.85356 6.85355L6.85356 9.85355C6.65829 10.0488 6.34171 10.0488 6.14645 9.85355L5.35356 9.06066C5.15829 8.8654 4.84171 8.8654 4.64645 9.06066L3.56066 10.1464C3.3654 10.3417 3.3654 10.6583 3.56066 10.8536L4.43934 11.7322C5.02513 12.318 5.97488 12.318 6.56066 11.7322L11.7322 6.56066C12.318 5.97487 12.318 5.02513 11.7322 4.43934L10.8536 3.56066Z" fill="#EBEBEB"/>
</svg>
